<svg xmlns="http://www.w3.org/2000/svg" width="24" height="24" viewBox="0 0 24 24">
  <g id="calculator" transform="translate(-0.5)">
    <path id="Path_3957" data-name="Path 3957" d="M0,0H24V24H0Z" transform="translate(0.5 0)" fill="none"/>
    <path id="Path_3950" data-name="Path 3950" d="M7.646,22.417H17.854A3.65,3.65,0,0,0,21.5,18.771V5.646A3.65,3.65,0,0,0,17.854,2H7.646A3.65,3.65,0,0,0,4,5.646V18.771A3.65,3.65,0,0,0,7.646,22.417ZM5.458,5.646A2.19,2.19,0,0,1,7.646,3.458H17.854a2.19,2.19,0,0,1,2.188,2.187V18.771a2.19,2.19,0,0,1-2.187,2.188H7.646a2.19,2.19,0,0,1-2.188-2.187Z" fill="#43425d"/>
    <path id="Path_3951" data-name="Path 3951" d="M10.144,11.831h8.145a.729.729,0,0,0,0-1.458H10.144a.729.729,0,1,0,0,1.458Z" transform="translate(-1.467 -2.268)" fill="#43425d"/>
    <path id="Path_3952" data-name="Path 3952" d="M9.149,19.618h1.458a.729.729,0,1,0,0-1.458H9.149a.729.729,0,1,0,0,1.458Z" transform="translate(-1.197 -4.377)" fill="#43425d"/>
    <path id="Path_3953" data-name="Path 3953" d="M9.149,24.537h1.458a.729.729,0,1,0,0-1.458H9.149a.729.729,0,1,0,0,1.458Z" transform="translate(-1.197 -5.709)" fill="#43425d"/>
    <path id="Path_3954" data-name="Path 3954" d="M16.188,18.16H14.729a.729.729,0,0,0,0,1.458h1.458a.729.729,0,0,0,0-1.458Z" transform="translate(-2.708 -4.377)" fill="#43425d"/>
    <path id="Path_3955" data-name="Path 3955" d="M16.188,23.079H14.729a.729.729,0,0,0,0,1.458h1.458a.729.729,0,0,0,0-1.458Z" transform="translate(-2.708 -5.709)" fill="#43425d"/>
    <path id="Path_3956" data-name="Path 3956" d="M21.314,18.16a.729.729,0,0,0-.729.729v3.587a.729.729,0,1,0,1.458,0V18.889A.729.729,0,0,0,21.314,18.16Z" transform="translate(-4.492 -4.377)" fill="#43425d"/>
  </g>
</svg>
